<?xml version="1.0" encoding="UTF-8" standalone="no"?>
<svg width="151px" height="151px" viewBox="0 0 151 151" version="1.1" xmlns="http://www.w3.org/2000/svg" xmlns:xlink="http://www.w3.org/1999/xlink">
    <!-- Generator: Sketch 3.6.1 (26313) - http://www.bohemiancoding.com/sketch -->
    <title>svg-under-the-hood</title>
    <desc>Created with Sketch.</desc>
    <defs>
        <path id="path-1" d="M25.1949406,0.400704384 L58.600708,0.400704384 L58.600708,106.395082 L0.917297363,106.395082 L25.1949406,0.400704384 Z"></path>
        <filter x="-50%" y="-50%" width="200%" height="200%" filterUnits="objectBoundingBox" id="filter-3">
            <feGaussianBlur stdDeviation="2" in="SourceGraphic" result="blur"></feGaussianBlur>
        </filter>
        <path id="path-4" d="M76.6812856,38.8261604 L110.087053,38.8261604 L110.087053,146.957653 L51.8463262,146.957653 L76.6812856,38.8261604 Z"></path>
    </defs>
    <g id="Page-1" stroke="none" stroke-width="1" fill="none" fill-rule="evenodd">
        <g id="svg-under-the-hood">
            <g id="1f5bc" transform="translate(75.000000, 75.500000) scale(-1, 1) translate(-75.000000, -75.500000) translate(-1.000000, 0.000000)">
                <path d="M0,0 L0,150.807297 L75.4036484,75.4036484 L0,0 Z" id="Shape" fill="#333333"></path>
                <path d="M150.807297,0 L0,0 L75.4036484,75.4036484 L150.807297,0 Z" id="Shape" fill="#697277"></path>
                <path d="M0,150.807297 L150.807297,150.807297 L75.4036484,75.4036484 L0,150.807297 Z" id="Shape" fill="#333333"></path>
                <g id="Group" transform="translate(9.425456, 0.000000)" fill="#52595E">
                    <path d="M65.9781923,75.4036484 L141.381841,150.807297 L141.381841,0 L65.9781923,75.4036484 Z" id="Shape"></path>
                    <path d="M0,9.42545605 L0,141.381841 L65.9781923,75.4036484 L0,9.42545605 Z" id="Shape"></path>
                </g>
                <path d="M141.381841,9.42545605 L9.42545605,9.42545605 L75.4036484,75.4036484 L141.381841,9.42545605 Z" id="Shape" fill="#333333"></path>
                <path d="M9.42545605,141.381841 L141.381841,141.381841 L75.4036484,75.4036484 L9.42545605,141.381841 Z" id="Shape" fill="#697277"></path>
                <path d="M75.4036484,75.4036484 L141.381841,141.381841 L141.381841,9.42545605 L75.4036484,75.4036484 Z" id="Shape" fill="#333333"></path>
                <path d="M131.956385,127.934071 C131.956385,130.153766 130.156123,131.956385 127.938784,131.956385 L22.8732255,131.956385 C20.6558869,131.956385 18.8509121,130.153766 18.8509121,127.934071 L18.8509121,22.8732255 C18.8509121,20.6511742 20.6558869,18.8509121 22.8732255,18.8509121 L127.938784,18.8509121 C130.156123,18.8509121 131.956385,20.6511742 131.956385,22.8732255 L131.956385,127.934071 L131.956385,127.934071 Z" id="Shape" fill="#D0D0D0"></path>
                <path d="M131.956385,127.934071 C131.956385,130.153766 130.156123,131.956385 127.938784,131.956385 L22.8732255,131.956385 C20.6558869,131.956385 18.8509121,130.153766 18.8509121,127.934071 L18.8509121,22.8732255 C18.8509121,20.6511742 20.6558869,18.8509121 22.8732255,18.8509121 L127.938784,18.8509121 C130.156123,18.8509121 131.956385,20.6511742 131.956385,22.8732255 L131.956385,127.934071 L131.956385,127.934071 Z" id="Shape" fill="#42ADE2"></path>
                <path d="M19.3056904,84.049148 L131.956385,84.049148 L131.956385,131.956385 L19.3056904,131.956385 L19.3056904,84.049148 Z" id="Shape" fill="#FED0AC"></path>
                <ellipse id="Oval" fill="#FFCE31" cx="110.195363" cy="43.6327924" rx="11.852511" ry="11.852511"></ellipse>
                <path d="M42.0563849,94.0778332 L75.6392848,103.658809 L75.6392848,64.4394866 L42.0563849,94.0778332 Z" id="Shape" fill="#89664C"></path>
                <path d="M109.217472,94.0778332 L75.6392848,103.658809 L75.6392848,64.4394866 L109.217472,94.0778332 Z" id="Shape" fill="#D3976E"></path>
                <path d="M14.1381841,14.1381841 L14.1381841,136.669113 L136.669113,136.669113 L136.669113,14.1381841 L14.1381841,14.1381841 M128.421839,128.421839 L22.3854581,128.421839 L22.3854581,22.3854581 L128.421839,22.3854581 L128.421839,128.421839" id="Shape" fill="#FFFFFF"></path>
            </g>
            <g id="code" transform="translate(70.000000, 22.000000)">
                <mask id="mask-2" fill="white">
                    <use xlink:href="#path-1"></use>
                </mask>
                <use id="Rectangle-1" fill="#D0011B" xlink:href="#path-1"></use>
                <g id="Group" mask="url(#mask-2)">
                    <g transform="translate(-51.483644, -38.425456)">
                        <path d="M116.400223,160 L9.44486001,160 C4.41873557,160 0.344582192,155.503249 0.344582192,149.953325 L0.344582192,31.0493551 C0.344582192,25.4994313 4.41873557,21 9.44486001,21 L116.400223,21 C121.426347,21 125.502857,25.4994313 125.502857,31.0493551 L125.502857,149.953325 C125.502857,155.500569 121.426347,160 116.400223,160 Z" id="Shape" stroke="none" fill="#333333" fill-rule="evenodd"></path>
                        <text id="&lt;svg-class=&quot;svg-icon" stroke="none" fill="none" font-family="OperatorMono-Medium, Operator Mono" font-size="6" font-weight="400">
                            <tspan x="7.48364426" y="6.42545605" fill="#D9E3E8">&lt;svg class="svg-icon" viewBox="0 0 20 </tspan>
                            <tspan x="7.48364426" y="13.425456" fill="#D9E3E8">20"&gt;</tspan>
                            <tspan x="7.48364426" y="20.425456" fill="#D9E3E8">				</tspan>
                            <tspan x="7.48364426" y="27.425456" fill="#D9E3E8">			&lt;path </tspan>
                            <tspan x="7.48364426" y="34.425456" fill="#D9E3E8">d="M17.237,3.056H2.93c-0.694,0-1.263,0.</tspan>
                            <tspan x="7.48364426" y="41.425456" fill="#D9E3E8">568-1.263,1.263v8.837c0,0.694,0.568,1.2</tspan>
                            <tspan x="7.48364426" y="48.425456" fill="#D9E3E8">63,1.263,1.263h4.629v0.879c-0.015,0.086</tspan>
                            <tspan x="7.48364426" y="55.425456" fill="#D9E3E8">-0.183,0.306-0.273,0.423c-0.223,0.293-0</tspan>
                            <tspan x="7.48364426" y="62.425456" fill="#D9E3E8">455,0.592-0.293,0.92c0.07,0.139,0.226,0</tspan>
                            <tspan x="7.48364426" y="69.425456" fill="#D9E3E8">303,0.577,0.303h4.819c0.208,0,0.696,0,0</tspan>
                            <tspan x="7.48364426" y="76.425456" fill="#D9E3E8">862-0.379c0.162-0.37-0.124-0.682-0.374-</tspan>
                            <tspan x="7.48364426" y="83.425456" fill="#D9E3E8">0.955c-0.089-0.097-0.231-0.252-0.268-0.</tspan>
                            <tspan x="7.48364426" y="90.425456" fill="#D9E3E8">328v-0.862h4.629c0.694,0,1.263-0.568,1.</tspan>
                            <tspan x="7.48364426" y="97.425456" fill="#D9E3E8">263-1.263V4.319C18.5,3.625,17.932,3.056</tspan>
                            <tspan x="7.48364426" y="104.425456" fill="#D9E3E8">17.237,3.056M8.053,16.102C8.232,15.862,</tspan>
                            <tspan x="7.48364426" y="111.425456" fill="#D9E3E8">8.4,15.597,84,15.309v-0.89h3.366v0.89c0</tspan>
                            <tspan x="7.48364426" y="118.425456" fill="#D9E3E8">,0.303,0.211,0.562,0.419,0.793H8.053z </tspan>
                            <tspan x="7.48364426" y="125.425456" fill="#D9E3E8">M17.658,13.156c0,0.228-0.193,0.421-0.42</tspan>
                            <tspan x="7.48364426" y="132.425456" fill="#D9E3E8">1,0.421H2.93c-0.228,0-0.421-0.193-0.421</tspan>
                            <tspan x="7.48364426" y="139.425456" fill="#D9E3E8">-0.421v-1.263h15.149V13.156z </tspan>
                            <tspan x="7.48364426" y="146.425456" fill="#D9E3E8">M17.658,11.052H2.509V4.319c0-0.228,0.19</tspan>
                            <tspan x="7.48364426" y="153.425456" fill="#D9E3E8">3-0.421,0.421-0.421h14.308c0.228,0,0.42</tspan>
                            <tspan x="7.48364426" y="160.425456" fill="#D9E3E8">1,0.193,0.421,0.421V11.052z"&gt;&lt;/path&gt;</tspan>
                            <tspan x="7.48364426" y="167.425456" fill="#D9E3E8">				</tspan>
                            <tspan x="7.48364426" y="174.425456" fill="#D9E3E8">		&lt;/svg&gt;</tspan>
                        </text>
                        <mask id="mask-5" fill="white">
                            <use xlink:href="#path-4"></use>
                        </mask>
                        <use id="Rectangle-1" stroke-opacity="0.75" stroke="#081E25" stroke-width="1.5" fill="none" style="mix-blend-mode: darken;" filter="url(#filter-3)" xlink:href="#path-4"></use>
                    </g>
                </g>
            </g>
        </g>
    </g>
</svg>